<?xml version="1.0" encoding="UTF-8"?>
<svg width="40" height="40" viewBox="0 0 40 40" fill="none" xmlns="http://www.w3.org/2000/svg">
  <!-- Plate -->
  <circle cx="20" cy="20" r="15" fill="#F3F4F6" stroke="#F59E0B" stroke-width="2"/>
  <circle cx="20" cy="20" r="12" fill="white" stroke="#F59E0B" stroke-width="1"/>
  
  <!-- Utensils -->
  <!-- Fork -->
  <path d="M15 10V30" stroke="#F59E0B" stroke-width="2" stroke-linecap="round"/>
  <path d="M15 10L13 12M15 10L17 12" stroke="#F59E0B" stroke-width="2" stroke-linecap="round"/>
  <path d="M15 15L13 13M15 15L17 13" stroke="#F59E0B" stroke-width="2" stroke-linecap="round"/>
  
  <!-- Knife -->
  <path d="M25 10L23 30" stroke="#F59E0B" stroke-width="2" stroke-linecap="round"/>
  <path d="M25 10L27 12" stroke="#F59E0B" stroke-width="2" stroke-linecap="round"/>
  <path d="M25 15L27 13" stroke="#F59E0B" stroke-width="2" stroke-linecap="round"/>
  
  <!-- Spoon -->
  <path d="M20 25C20 25 22 27 20 29C18 31 16 29 16 29C16 29 14 31 12 29C10 27 12 25 12 25C12 25 10 23 12 21C14 19 16 21 16 21C16 21 18 19 20 21C22 23 20 25 20 25Z" fill="#F59E0B"/>
</svg>
